{
.appVersion = 965;
copyright = "Copyright 2017 Google Inc. All Rights Reserved.";
customParameters = (
{
name = glyphOrder;
value = (
.notdef,
NULL,
CR,
space,
u10450,
u10451,
u10452,
u10453,
u10454,
u10455,
u10456,
u10457,
u10458,
u10459,
u1045A,
u1045B,
u1045C,
u1045D,
u1045E,
u1045F,
u10460,
u10461,
u10462,
u10463,
u10464,
u10465,
u10466,
u10467,
u10468,
u10469,
u1046A,
u1046B,
u1046C,
u1046D,
u1046E,
u1046F,
u10470,
u10471,
u10472,
u10473,
u10474,
u10475,
u10476,
u10477,
u10478,
u10479,
u1047A,
u1047B,
u1047C,
u1047D,
u1047E,
u1047F,
uni00A0
);
},
{
name = description;
value = "Designed by Monotype design team.";
},
{
name = license;
value = "This Font Software is licensed under the SIL Open Font License, Version 1.1. This Font Software is distributed on an \"AS IS\" BASIS, WITHOUT WARRANTIES OR CONDITIONS OF ANY KIND, either express or implied. See the SIL Open Font License for the specific language, permissions and limitations governing your use of this Font Software.";
},
{
name = licenseURL;
value = "http://scripts.sil.org/OFL";
},
{
name = vendorID;
value = GOOG;
},
{
name = unicodeRanges;
value = (
0,
1,
57,
105
);
},
{
name = trademark;
value = "Noto is a trademark of Google Inc.";
},
{
name = "Has WWS Names";
value = 1;
},
{
name = versionString;
value = "Version 1.900";
},
{
name = fsType;
value = (
);
},
{
name = codePageRanges;
value = (
1252
);
}
);
date = "2017-01-27 20:17:48 +0000";
designer = "Monotype Design Team";
designerURL = "http://www.monotype.com/studio";
disablesAutomaticAlignment = 1;
disablesNiceNames = 1;
familyName = "Noto Sans Shavian";
fontMaster = (
{
alignmentZones = (
"{1069, 15}",
"{771, 15}",
"{536, 15}",
"{0, -15}",
"{-293, -15}"
);
ascender = 1069;
capHeight = 771;
customParameters = (
{
name = typoAscender;
value = 1069;
},
{
name = typoDescender;
value = -293;
},
{
name = typoLineGap;
value = 0;
},
{
name = winAscent;
value = 1069;
},
{
name = winDescent;
value = 293;
},
{
name = hheaAscender;
value = 1069;
},
{

glyphs = (
{
glyphname = .notdef;
lastChange = "2017-02-01 14:39:09 +0000";
layers = (
{
layerId = UUID0;
paths = (
{
closed = 1;
nodes = (
"450 0 LINE",
"450 714 LINE",
"50 714 LINE",
"50 0 LINE"
);
},
{
closed = 1;
nodes = (
"98 666 LINE",
"402 666 LINE",
"402 48 LINE",
"98 48 LINE"
);
}
);
width = 500;
}
);
},
{
glyphname = u10450;
lastChange = "2017-02-01 14:39:09 +0000";
layers = (
{
layerId = UUID0;
paths = (
{
closed = 1;
nodes = (
"271 0 LINE",
"271 467 LINE SMOOTH",
"271 635 OFFCURVE",
"207 771 OFFCURVE",
"10 771 CURVE",
"10 688 LINE",
"132 688 OFFCURVE",
"181 595 OFFCURVE",
"181 467 CURVE SMOOTH",
"181 0 LINE"
);
}
);
width = 359;
}
);
unicode = 10450;
},
{
glyphname = u10451;
lastChange = "2017-02-01 14:39:09 +0000";
layers = (
{
layerId = UUID0;
paths = (
{
closed = 1;
nodes = (
"293 0 LINE",
"293 771 LINE",
"213 771 LINE",
"167 688 OFFCURVE",
"70 629 OFFCURVE",
"10 612 CURVE",
"10 529 LINE",
"92 552 OFFCURVE",
"175 604 OFFCURVE",
"203 637 CURVE",
"203 0 LINE"
);
}
);
width = 381;
}
);
unicode = 10451;
},
{
glyphname = u10452;
lastChange = "2017-02-01 14:39:09 +0000";
layers = (
{
layerId = UUID0;
paths = (
{
closed = 1;
nodes = (
"381 73 LINE",
"249 77 OFFCURVE",
"144 129 OFFCURVE",
"144 259 CURVE SMOOTH",
"144 399 OFFCURVE",
"235 432 OFFCURVE",
"277 432 CURVE SMOOTH",
"313 432 OFFCURVE",
"332 421 OFFCURVE",
"345 413 CURVE",
"391 413 LINE",
"391 771 LINE",
"301 771 LINE",
"301 509 LINE",
"283 514 OFFCURVE",
"277 514 OFFCURVE",
"258 514 CURVE SMOOTH",
"166 514 OFFCURVE",
"49 425 OFFCURVE",
"49 260 CURVE SMOOTH",
"49 96 OFFCURVE",
"165 -10 OFFCURVE",
"381 -10 CURVE"
);
}
);
width = 469;
}
);
unicode = 10452;
},
{
glyphname = u10453;
lastChange = "2017-02-01 14:39:09 +0000";
layers = (
{
layerId = UUID0;
paths = (
{
closed = 1;
nodes = (
"207 0 OFFCURVE",
"271 136 OFFCURVE",
"271 304 CURVE SMOOTH",
"271 771 LINE",
"181 771 LINE",
"181 304 LINE SMOOTH",
"181 177 OFFCURVE",
"132 83 OFFCURVE",
"10 83 CURVE",
"10 0 LINE"
);
}
);
width = 359;
}
);
unicode = 10453;
},
{
glyphname = u10454;
lastChange = "2017-02-01 14:39:09 +0000";
layers = (
{
layerId = UUID0;
paths = (
{
closed = 1;
nodes = (
"386 -10 OFFCURVE",
"481 97 OFFCURVE",
"481 277 CURVE SMOOTH",
"481 479 OFFCURVE",
"391 681 OFFCURVE",
"222 781 CURVE",
"173 712 LINE",
"315 616 OFFCURVE",
"387 462 OFFCURVE",
"387 268 CURVE SMOOTH",
"387 137 OFFCURVE",
"325 73 OFFCURVE",
"247 73 CURVE SMOOTH",
"191 73 OFFCURVE",
"140 107 OFFCURVE",
"140 214 CURVE SMOOTH",
"140 311 OFFCURVE",
"231 393 OFFCURVE",
"324 426 CURVE",
"291 505 LINE",
"113 437 OFFCURVE",
"49 303 OFFCURVE",
"49 213 CURVE SMOOTH",
"49 79 OFFCURVE",
"125 -10 OFFCURVE",
"247 -10 CURVE SMOOTH"
);
}
);
width = 544;
}
);
unicode = 10454;
},
{
glyphname = u10455;
lastChange = "2017-02-01 14:39:09 +0000";
layers = (
{
layerId = UUID0;
paths = (
{
closed = 1;
nodes = (
"263 -10 OFFCURVE",
"351 64 OFFCURVE",
"351 216 CURVE SMOOTH",
"351 427 OFFCURVE",
"140 519 OFFCURVE",
"140 649 CURVE SMOOTH",
"140 676 OFFCURVE",
"156 698 OFFCURVE",
"200 698 CURVE SMOOTH",
"238 698 OFFCURVE",
"264 694 OFFCURVE",
"288 686 CURVE",
"308 762 LINE",
"275 774 OFFCURVE",
"248 781 OFFCURVE",
"194 781 CURVE SMOOTH",
"104 781 OFFCURVE",
"49 729 OFFCURVE",
"49 649 CURVE SMOOTH",
"49 487 OFFCURVE",
"260 393 OFFCURVE",
"260 216 CURVE SMOOTH",
"260 106 OFFCURVE",
"214 73 OFFCURVE",
"154 73 CURVE SMOOTH",
"124 73 OFFCURVE",
"100 77 OFFCURVE",
"82 84 CURVE",
"70 0 LINE",
"93 -6 OFFCURVE",
"118 -10 OFFCURVE",
"146 -10 CURVE SMOOTH"
);
}
);
width = 399;
}
);
unicode = 10455;
},
{
glyphname = u10456;
lastChange = "2017-02-01 14:39:09 +0000";
layers = (
{
layerId = UUID0;
paths = (
{
closed = 1;
nodes = (
"318 -10 OFFCURVE",
"379 -1 OFFCURVE",
"428 14 CURVE",
"428 99 LINE",
"387 84 OFFCURVE",
"324 73 OFFCURVE",
"270 73 CURVE SMOOTH",
"192 73 OFFCURVE",
"140 79 OFFCURVE",
"140 209 CURVE SMOOTH",
"140 362 OFFCURVE",
"192 557 OFFCURVE",
"323 738 CURVE",
"255 781 LINE",
"116 607 OFFCURVE",
"49 373 OFFCURVE",
"49 208 CURVE SMOOTH",
"49 28 OFFCURVE",
"137 -10 OFFCURVE",
"257 -10 CURVE SMOOTH"
);
}
);
width = 443;
}
);
unicode = 10456;
},
{
glyphname = u10457;
lastChange = "2017-02-01 14:39:09 +0000";
layers = (
{
layerId = UUID0;
paths = (
{
closed = 1;
nodes = (
"355 -10 OFFCURVE",
"417 -1 OFFCURVE",
"465 14 CURVE",
"465 99 LINE",
"424 84 OFFCURVE",
"361 73 OFFCURVE",
"307 73 CURVE SMOOTH",
"229 73 OFFCURVE",
"177 79 OFFCURVE",
"177 209 CURVE SMOOTH",
"177 362 OFFCURVE",
"229 557 OFFCURVE",
"360 738 CURVE",
"292 781 LINE",
"257 738 OFFCURVE",
"228 691 OFFCURVE",
"202 643 CURVE",
"163 610 OFFCURVE",
"107 594 OFFCURVE",
"48 594 CURVE SMOOTH",
"38 594 OFFCURVE",
"26 594 OFFCURVE",
"15 595 CURVE",
"15 512 LINE",
"27 511 OFFCURVE",
"39 511 OFFCURVE",
"51 511 CURVE SMOOTH",
"85 511 OFFCURVE",
"118 515 OFFCURVE",
"147 522 CURVE",
"106 411 OFFCURVE",
"86 299 OFFCURVE",
"86 208 CURVE SMOOTH",
"86 28 OFFCURVE",
"174 -10 OFFCURVE",
"294 -10 CURVE SMOOTH"
);
}
);
width = 480;
}
);
unicode = 10457;
},
{
glyphname = u10458;
lastChange = "2017-02-01 14:39:09 +0000";
layers = (
{
layerId = UUID0;
paths = (
{
closed = 1;
nodes = (
"328 16 LINE",
"93 781 LINE",
"10 755 LINE",
"245 -10 LINE"
);
}
);
width = 338;
}
);
unicode = 10458;
},
{
glyphname = u10459;
lastChange = "2017-02-01 14:39:09 +0000";
layers = (
{
layerId = UUID0;
paths = (
{
closed = 1;
nodes = (
"113 28 OFFCURVE",
"161 73 OFFCURVE",
"201 123 CURVE",
"240 73 OFFCURVE",
"288 28 OFFCURVE",
"344 -10 CURVE",
"387 59 LINE",
"333 100 OFFCURVE",
"288 146 OFFCURVE",
"252 197 CURVE",
"312 299 OFFCURVE",
"342 414 OFFCURVE",
"342 531 CURVE SMOOTH",
"342 667 OFFCURVE",
"304 781 OFFCURVE",
"201 781 CURVE SMOOTH",
"95 781 OFFCURVE",
"60 667 OFFCURVE",
"60 531 CURVE SMOOTH",
"60 414 OFFCURVE",
"90 299 OFFCURVE",
"150 197 CURVE",
"114 146 OFFCURVE",
"68 100 OFFCURVE",
"15 59 CURVE",
"58 -10 LINE"
);
},
{
closed = 1;
nodes = (
"167 360 OFFCURVE",
"150 441 OFFCURVE",
"150 530 CURVE SMOOTH",
"150 602 OFFCURVE",
"159 698 OFFCURVE",
"201 698 CURVE SMOOTH",
"243 698 OFFCURVE",
"251 602 OFFCURVE",
"251 530 CURVE SMOOTH",
"251 441 OFFCURVE",
"234 360 OFFCURVE",
"201 287 CURVE"
);
}
);
width = 402;
}
);
unicode = 10459;
},
{
glyphname = u1045A;
lastChange = "2017-02-01 14:39:09 +0000";
layers = (
{
layerId = UUID0;
paths = (
{
closed = 1;
nodes = (
"349 -152 LINE",
"227 -152 OFFCURVE",
"178 -59 OFFCURVE",
"178 69 CURVE SMOOTH",
"178 536 LINE",
"88 536 LINE",
"88 69 LINE SMOOTH",
"88 -99 OFFCURVE",
"152 -235 OFFCURVE",
"349 -235 CURVE"
);
}
);
width = 359;
}
);
unicode = 1045A;
},
{
glyphname = u1045B;
lastChange = "2017-02-01 14:39:09 +0000";
layers = (
{
layerId = UUID0;
paths = (
{
closed = 1;
nodes = (
"168 -235 LINE",
"214 -152 OFFCURVE",
"311 -93 OFFCURVE",
"371 -76 CURVE",
"371 7 LINE",
"289 -16 OFFCURVE",
"206 -67 OFFCURVE",
"178 -101 CURVE",
"178 536 LINE",
"88 536 LINE",
"88 -235 LINE"
);
}
);
width = 381;
}
);
unicode = 1045B;
},
{
glyphname = u1045C;
lastChange = "2017-02-01 14:39:09 +0000";
layers = (
{
layerId = UUID0;
paths = (
{
closed = 1;
nodes = (
"168 -235 LINE",
"168 27 LINE",
"187 22 OFFCURVE",
"192 22 OFFCURVE",
"211 22 CURVE SMOOTH",
"303 22 OFFCURVE",
"420 111 OFFCURVE",
"420 276 CURVE SMOOTH",
"420 440 OFFCURVE",
"304 546 OFFCURVE",
"88 546 CURVE",
"88 463 LINE",
"220 459 OFFCURVE",
"326 407 OFFCURVE",
"326 277 CURVE SMOOTH",
"326 137 OFFCURVE",
"234 104 OFFCURVE",
"192 104 CURVE SMOOTH",
"156 104 OFFCURVE",
"138 115 OFFCURVE",
"124 124 CURVE",
"78 124 LINE",
"78 -235 LINE"
);
}
);
width = 469;
}
);
unicode = 1045C;
},
{
glyphname = u1045D;
lastChange = "2017-02-01 14:39:09 +0000";
layers = (
{
layerId = UUID0;
paths = (
{
closed = 1;
nodes = (
"178 -235 LINE",
"178 232 LINE SMOOTH",
"178 359 OFFCURVE",
"227 453 OFFCURVE",
"349 453 CURVE",
"349 536 LINE",
"152 536 OFFCURVE",
"88 400 OFFCURVE",
"88 232 CURVE SMOOTH",
"88 -235 LINE"
);
}
);
width = 359;
}
);
unicode = 1045D;
},
{
glyphname = u1045E;
lastChange = "2017-02-01 14:39:09 +0000";
layers = (
{
layerId = UUID0;
paths = (
{
closed = 1;
nodes = (
"371 -176 LINE",
"229 -80 OFFCURVE",
"158 74 OFFCURVE",
"158 269 CURVE SMOOTH",
"158 399 OFFCURVE",
"220 463 OFFCURVE",
"298 463 CURVE SMOOTH",
"354 463 OFFCURVE",
"405 429 OFFCURVE",
"405 322 CURVE SMOOTH",
"405 226 OFFCURVE",
"313 144 OFFCURVE",
"220 110 CURVE",
"253 31 LINE",
"431 99 OFFCURVE",
"496 229 OFFCURVE",
"496 323 CURVE SMOOTH",
"496 475 OFFCURVE",
"414 546 OFFCURVE",
"292 546 CURVE SMOOTH",
"153 546 OFFCURVE",
"63 439 OFFCURVE",
"63 259 CURVE SMOOTH",
"63 57 OFFCURVE",
"153 -145 OFFCURVE",
"323 -245 CURVE"
);
}
);
width = 544;
}
);
unicode = 1045E;
},
{
glyphname = u1045F;
lastChange = "2017-02-01 14:39:09 +0000";
layers = (
{
layerId = UUID0;
paths = (
{
closed = 1;
nodes = (
"248 -245 OFFCURVE",
"275 -238 OFFCURVE",
"308 -226 CURVE",
"288 -149 LINE",
"264 -158 OFFCURVE",
"238 -162 OFFCURVE",
"200 -162 CURVE SMOOTH",
"156 -162 OFFCURVE",
"140 -140 OFFCURVE",
"140 -113 CURVE SMOOTH",
"140 18 OFFCURVE",
"351 109 OFFCURVE",
"351 320 CURVE SMOOTH",
"351 472 OFFCURVE",
"263 546 OFFCURVE",
"146 546 CURVE SMOOTH",
"118 546 OFFCURVE",
"93 542 OFFCURVE",
"70 537 CURVE",
"82 452 LINE",
"100 459 OFFCURVE",
"124 463 OFFCURVE",
"154 463 CURVE SMOOTH",
"214 463 OFFCURVE",
"260 430 OFFCURVE",
"260 320 CURVE SMOOTH",
"260 144 OFFCURVE",
"49 49 OFFCURVE",
"49 -113 CURVE SMOOTH",
"49 -193 OFFCURVE",
"104 -245 OFFCURVE",
"194 -245 CURVE SMOOTH"
);
}
);
width = 399;
}
);
unicode = 1045F;
},
{
glyphname = u10460;
lastChange = "2017-02-01 14:39:09 +0000";
layers = (
{
layerId = UUID0;
paths = (
{
closed = 1;
nodes = (
"327 -71 OFFCURVE",
"394 163 OFFCURVE",
"394 328 CURVE SMOOTH",
"394 508 OFFCURVE",
"306 546 OFFCURVE",
"186 546 CURVE SMOOTH",
"125 546 OFFCURVE",
"63 537 OFFCURVE",
"15 522 CURVE",
"15 437 LINE",
"56 452 OFFCURVE",
"119 463 OFFCURVE",
"173 463 CURVE SMOOTH",
"251 463 OFFCURVE",
"303 458 OFFCURVE",
"303 327 CURVE SMOOTH",
"303 174 OFFCURVE",
"251 -21 OFFCURVE",
"120 -202 CURVE",
"188 -245 LINE"
);
}
);
width = 443;
}
);
unicode = 10460;
},
{
glyphname = u10461;
lastChange = "2017-02-01 14:39:09 +0000";
layers = (
{
layerId = UUID0;
paths = (
{
closed = 1;
nodes = (
"222 -202 OFFCURVE",
"252 -155 OFFCURVE",
"278 -106 CURVE",
"316 -74 OFFCURVE",
"373 -58 OFFCURVE",
"432 -58 CURVE SMOOTH",
"442 -58 OFFCURVE",
"454 -58 OFFCURVE",
"465 -59 CURVE",
"465 24 LINE",
"453 25 OFFCURVE",
"441 25 OFFCURVE",
"429 25 CURVE SMOOTH",
"395 25 OFFCURVE",
"362 21 OFFCURVE",
"332 14 CURVE",
"374 125 OFFCURVE",
"394 237 OFFCURVE",
"394 328 CURVE SMOOTH",
"394 508 OFFCURVE",
"306 546 OFFCURVE",
"186 546 CURVE SMOOTH",
"125 546 OFFCURVE",
"63 537 OFFCURVE",
"15 522 CURVE",
"15 437 LINE",
"56 452 OFFCURVE",
"119 463 OFFCURVE",
"173 463 CURVE SMOOTH",
"251 463 OFFCURVE",
"303 458 OFFCURVE",
"303 327 CURVE SMOOTH",
"303 174 OFFCURVE",
"251 -21 OFFCURVE",
"120 -202 CURVE",
"188 -245 LINE"
);
}
);
width = 480;
}
);
unicode = 10461;
},
{
glyphname = u10462;
lastChange = "2017-02-01 14:39:09 +0000";
layers = (
{
layerId = UUID0;
paths = (
{
closed = 1;
nodes = (
"328 520 LINE",
"245 546 LINE",
"10 -219 LINE",
"93 -245 LINE"
);
}
);
width = 338;
}
);
unicode = 10462;
},
{
glyphname = u10463;
lastChange = "2017-02-01 14:39:09 +0000";
layers = (
{
layerId = UUID0;
paths = (
{
closed = 1;
nodes = (
"304 -245 OFFCURVE",
"342 -130 OFFCURVE",
"342 5 CURVE SMOOTH",
"342 122 OFFCURVE",
"312 237 OFFCURVE",
"252 339 CURVE",
"288 390 OFFCURVE",
"333 437 OFFCURVE",
"387 477 CURVE",
"344 546 LINE",
"288 508 OFFCURVE",
"240 463 OFFCURVE",
"201 413 CURVE",
"161 463 OFFCURVE",
"113 508 OFFCURVE",
"58 546 CURVE",
"15 477 LINE",
"68 437 OFFCURVE",
"114 390 OFFCURVE",
"150 339 CURVE",
"90 237 OFFCURVE",
"60 122 OFFCURVE",
"60 5 CURVE SMOOTH",
"60 -130 OFFCURVE",
"95 -245 OFFCURVE",
"201 -245 CURVE SMOOTH"
);
},
{
closed = 1;
nodes = (
"159 -162 OFFCURVE",
"150 -66 OFFCURVE",
"150 6 CURVE SMOOTH",
"150 95 OFFCURVE",
"167 176 OFFCURVE",
"201 250 CURVE",
"234 176 OFFCURVE",
"251 95 OFFCURVE",
"251 6 CURVE SMOOTH",
"251 -66 OFFCURVE",
"243 -162 OFFCURVE",
"201 -162 CURVE SMOOTH"
);
}
);
width = 402;
}
);
unicode = 10463;
},
{
glyphname = u10464;
lastChange = "2017-02-01 14:39:09 +0000";
layers = (
{
layerId = UUID0;
paths = (
{
closed = 1;
nodes = (
"353 -10 OFFCURVE",
"371 -7 OFFCURVE",
"377 -7 CURVE",
"377 76 LINE",
"373 76 OFFCURVE",
"354 73 OFFCURVE",
"334 73 CURVE SMOOTH",
"232 73 OFFCURVE",
"147 139 OFFCURVE",
"147 268 CURVE SMOOTH",
"147 397 OFFCURVE",
"231 463 OFFCURVE",
"334 463 CURVE SMOOTH",
"354 463 OFFCURVE",
"373 460 OFFCURVE",
"377 460 CURVE",
"377 543 LINE",
"371 543 OFFCURVE",
"353 546 OFFCURVE",
"333 546 CURVE SMOOTH",
"178 546 OFFCURVE",
"56 455 OFFCURVE",
"56 267 CURVE SMOOTH",
"56 79 OFFCURVE",
"178 -10 OFFCURVE",
"333 -10 CURVE SMOOTH"
);
}
);
width = 426;
}
);
unicode = 10464;
},
{
glyphname = u10465;
lastChange = "2017-02-01 14:39:09 +0000";
layers = (
{
layerId = UUID0;
paths = (
{
closed = 1;
nodes = (
"166 -10 OFFCURVE",
"243 95 OFFCURVE",
"264 267 CURVE SMOOTH",
"278 385 OFFCURVE",
"334 463 OFFCURVE",
"401 463 CURVE",
"401 546 LINE",
"275 546 OFFCURVE",
"200 437 OFFCURVE",
"178 274 CURVE SMOOTH",
"161 150 OFFCURVE",
"106 73 OFFCURVE",
"39 73 CURVE",
"39 -10 LINE"
);
}
);
width = 440;
}
);
unicode = 10465;
},
{
glyphname = u10466;
lastChange = "2017-02-01 14:39:09 +0000";
layers = (
{
layerId = UUID0;
paths = (
{
closed = 1;
nodes = (
"178 0 LINE",
"178 536 LINE",
"88 536 LINE",
"88 0 LINE"
);
}
);
width = 266;
}
);
unicode = 10466;
},
{
glyphname = u10467;
lastChange = "2017-02-01 14:39:09 +0000";
layers = (
{
layerId = UUID0;
paths = (
{
closed = 1;
nodes = (
"334 73 LINE",
"212 73 OFFCURVE",
"163 167 OFFCURVE",
"163 294 CURVE SMOOTH",
"163 536 LINE",
"73 536 LINE",
"73 294 LINE SMOOTH",
"73 126 OFFCURVE",
"137 -10 OFFCURVE",
"334 -10 CURVE"
);
}
);
width = 374;
}
);
unicode = 10467;
},
{
glyphname = u10468;
lastChange = "2017-02-01 14:39:09 +0000";
layers = (
{
layerId = UUID0;
paths = (
{
closed = 1;
nodes = (
"236 -10 OFFCURVE",
"300 126 OFFCURVE",
"300 294 CURVE SMOOTH",
"300 536 LINE",
"210 536 LINE",
"210 294 LINE SMOOTH",
"210 167 OFFCURVE",
"161 73 OFFCURVE",
"39 73 CURVE",
"39 -10 LINE"
);
}
);
width = 374;
}
);
unicode = 10468;
},
{
glyphname = u10469;
lastChange = "2017-02-01 14:39:09 +0000";
layers = (
{
layerId = UUID0;
paths = (
{
closed = 1;
nodes = (
"163 0 LINE",
"163 242 LINE SMOOTH",
"163 369 OFFCURVE",
"212 463 OFFCURVE",
"334 463 CURVE",
"334 546 LINE",
"137 546 OFFCURVE",
"73 410 OFFCURVE",
"73 242 CURVE SMOOTH",
"73 0 LINE"
);
}
);
width = 374;
}
);
unicode = 10469;
},
{
glyphname = u1046A;
lastChange = "2017-02-01 14:39:09 +0000";
layers = (
{
layerId = UUID0;
paths = (
{
closed = 1;
nodes = (
"300 0 LINE",
"300 242 LINE SMOOTH",
"300 410 OFFCURVE",
"236 546 OFFCURVE",
"39 546 CURVE",
"39 463 LINE",
"161 463 OFFCURVE",
"210 369 OFFCURVE",
"210 242 CURVE SMOOTH",
"210 0 LINE"
);
}
);
width = 374;
}
);
unicode = 1046A;
},
{
glyphname = u1046B;
lastChange = "2017-02-01 14:39:09 +0000";
layers = (
{
layerId = UUID0;
paths = (
{
closed = 1;
nodes = (
"297 0 LINE",
"503 514 LINE",
"417 546 LINE",
"256 134 LINE",
"96 546 LINE",
"10 514 LINE",
"215 0 LINE"
);
}
);
width = 513;
}
);
unicode = 1046B;
},
{
glyphname = u1046C;
lastChange = "2017-02-01 14:39:09 +0000";
layers = (
{
layerId = UUID0;
paths = (
{
closed = 1;
nodes = (
"301 73 LINE",
"228 73 OFFCURVE",
"227 104 OFFCURVE",
"227 133 CURVE SMOOTH",
"227 152 LINE SMOOTH",
"227 203 OFFCURVE",
"218 263 OFFCURVE",
"146 283 CURVE",
"236 339 OFFCURVE",
"285 445 OFFCURVE",
"294 536 CURVE",
"205 536 LINE",
"187 435 OFFCURVE",
"109 330 OFFCURVE",
"10 298 CURVE",
"10 215 LINE",
"63 215 LINE SMOOTH",
"137 215 OFFCURVE",
"137 182 OFFCURVE",
"137 152 CURVE SMOOTH",
"137 133 LINE SMOOTH",
"137 63 OFFCURVE",
"152 -10 OFFCURVE",
"301 -10 CURVE"
);
}
);
width = 340;
}
);
unicode = 1046C;
},
{
glyphname = u1046D;
lastChange = "2017-02-01 14:39:09 +0000";
layers = (
{
layerId = UUID0;
paths = (
{
closed = 1;
nodes = (
"321 -10 OFFCURVE",
"400 125 OFFCURVE",
"400 223 CURVE SMOOTH",
"400 242 LINE",
"384 240 OFFCURVE",
"372 239 OFFCURVE",
"354 239 CURVE SMOOTH",
"269 239 OFFCURVE",
"237 298 OFFCURVE",
"237 350 CURVE SMOOTH",
"237 412 OFFCURVE",
"275 463 OFFCURVE",
"360 463 CURVE SMOOTH",
"392 463 OFFCURVE",
"437 459 OFFCURVE",
"467 453 CURVE",
"467 537 LINE",
"440 542 OFFCURVE",
"406 546 OFFCURVE",
"359 546 CURVE SMOOTH",
"234 546 OFFCURVE",
"146 468 OFFCURVE",
"146 350 CURVE SMOOTH",
"146 256 OFFCURVE",
"208 186 OFFCURVE",
"294 164 CURVE",
"262 105 OFFCURVE",
"186 73 OFFCURVE",
"105 73 CURVE SMOOTH",
"86 73 OFFCURVE",
"64 75 OFFCURVE",
"41 79 CURVE",
"29 -3 LINE",
"57 -8 OFFCURVE",
"83 -10 OFFCURVE",
"108 -10 CURVE SMOOTH"
);
}
);
width = 506;
}
);
unicode = 1046D;
},
{
glyphname = u1046E;
lastChange = "2017-02-01 14:39:09 +0000";
layers = (
{
layerId = UUID0;
paths = (
{
closed = 1;
nodes = (
"249 -10 OFFCURVE",
"370 79 OFFCURVE",
"370 267 CURVE SMOOTH",
"370 455 OFFCURVE",
"249 546 OFFCURVE",
"93 546 CURVE SMOOTH",
"74 546 OFFCURVE",
"55 543 OFFCURVE",
"49 543 CURVE",
"49 460 LINE",
"53 460 OFFCURVE",
"73 463 OFFCURVE",
"92 463 CURVE SMOOTH",
"195 463 OFFCURVE",
"279 397 OFFCURVE",
"279 268 CURVE SMOOTH",
"279 139 OFFCURVE",
"194 73 OFFCURVE",
"92 73 CURVE SMOOTH",
"73 73 OFFCURVE",
"53 76 OFFCURVE",
"49 76 CURVE",
"49 -7 LINE",
"55 -7 OFFCURVE",
"74 -10 OFFCURVE",
"93 -10 CURVE SMOOTH"
);
}
);
width = 426;
}
);
unicode = 1046E;
},
{
glyphname = u1046F;
lastChange = "2017-02-01 14:39:09 +0000";
layers = (
{
layerId = UUID0;
paths = (
{
closed = 1;
nodes = (
"401 73 LINE",
"334 73 OFFCURVE",
"280 150 OFFCURVE",
"263 274 CURVE SMOOTH",
"240 437 OFFCURVE",
"166 546 OFFCURVE",
"39 546 CURVE",
"39 463 LINE",
"106 463 OFFCURVE",
"163 385 OFFCURVE",
"177 267 CURVE SMOOTH",
"197 95 OFFCURVE",
"274 -10 OFFCURVE",
"401 -10 CURVE"
);
}
);
width = 440;
}
);
unicode = 1046F;
},
{
glyphname = u10470;
lastChange = "2017-02-01 14:39:09 +0000";
layers = (
{
layerId = UUID0;
paths = (
{
closed = 1;
nodes = (
"346 0 LINE",
"346 370 LINE",
"266 429 LINE",
"148 304 LINE",
"148 536 LINE",
"59 536 LINE",
"59 236 LINE",
"138 178 LINE",
"256 303 LINE",
"256 0 LINE"
);
}
);
width = 405;
}
);
unicode = 10470;
},
{
glyphname = u10471;
lastChange = "2017-02-01 14:39:09 +0000";
layers = (
{
layerId = UUID0;
paths = (
{
closed = 1;
nodes = (
"374 75 LINE",
"177 81 OFFCURVE",
"153 310 OFFCURVE",
"153 441 CURVE SMOOTH",
"153 456 LINE",
"378 456 LINE",
"378 536 LINE",
"63 536 LINE",
"63 441 LINE SMOOTH",
"63 252 OFFCURVE",
"119 -10 OFFCURVE",
"374 -10 CURVE"
);
}
);
width = 427;
}
);
unicode = 10471;
},
{
glyphname = u10472;
lastChange = "2017-02-01 14:39:09 +0000";
layers = (
{
layerId = UUID0;
paths = (
{
closed = 1;
nodes = (
"308 -10 OFFCURVE",
"364 252 OFFCURVE",
"364 441 CURVE SMOOTH",
"364 536 LINE",
"49 536 LINE",
"49 456 LINE",
"274 456 LINE",
"274 441 LINE SMOOTH",
"274 310 OFFCURVE",
"250 81 OFFCURVE",
"54 75 CURVE",
"54 -10 LINE"
);
}
);
width = 427;
}
);
unicode = 10472;
},
{
glyphname = u10473;
lastChange = "2017-02-01 14:39:09 +0000";
layers = (
{
layerId = UUID0;
paths = (
{
closed = 1;
nodes = (
"189 0 LINE",
"189 168 OFFCURVE",
"256 366 OFFCURVE",
"403 458 CURVE",
"403 536 LINE",
"24 536 LINE",
"24 456 LINE",
"288 456 LINE",
"165 338 OFFCURVE",
"100 148 OFFCURVE",
"100 0 CURVE"
);
}
);
width = 428;
}
);
unicode = 10473;
},
{
glyphname = u10474;
lastChange = "2017-02-01 14:39:09 +0000";
layers = (
{
layerId = UUID0;
paths = (
{
closed = 1;
nodes = (
"426 -10 OFFCURVE",
"526 87 OFFCURVE",
"526 267 CURVE SMOOTH",
"526 416 OFFCURVE",
"452 546 OFFCURVE",
"296 546 CURVE SMOOTH",
"138 546 OFFCURVE",
"63 416 OFFCURVE",
"63 267 CURVE SMOOTH",
"63 87 OFFCURVE",
"164 -10 OFFCURVE",
"294 -10 CURVE SMOOTH"
);
},
{
closed = 1;
nodes = (
"221 73 OFFCURVE",
"154 137 OFFCURVE",
"154 268 CURVE SMOOTH",
"154 397 OFFCURVE",
"221 463 OFFCURVE",
"299 463 CURVE SMOOTH",
"371 463 OFFCURVE",
"436 395 OFFCURVE",
"436 268 CURVE SMOOTH",
"436 137 OFFCURVE",
"369 73 OFFCURVE",
"295 73 CURVE SMOOTH"
);
}
);
width = 590;
}
);
unicode = 10474;
},
{
glyphname = u10475;
lastChange = "2017-02-01 14:39:09 +0000";
layers = (
{
layerId = UUID0;
paths = (
{
closed = 1;
nodes = (
"256 402 LINE",
"417 -10 LINE",
"503 22 LINE",
"297 536 LINE",
"215 536 LINE",
"10 22 LINE",
"96 -10 LINE"
);
}
);
width = 513;
}
);
unicode = 10475;
},
{
glyphname = u10476;
lastChange = "2017-02-01 14:39:09 +0000";
layers = (
{
layerId = UUID0;
paths = (
{
closed = 1;
nodes = (
"135 0 LINE",
"153 102 OFFCURVE",
"230 207 OFFCURVE",
"330 238 CURVE",
"330 321 LINE",
"276 321 LINE SMOOTH",
"203 321 OFFCURVE",
"203 354 OFFCURVE",
"203 384 CURVE SMOOTH",
"203 403 LINE SMOOTH",
"203 473 OFFCURVE",
"188 546 OFFCURVE",
"39 546 CURVE",
"39 463 LINE",
"112 463 OFFCURVE",
"113 433 OFFCURVE",
"113 403 CURVE SMOOTH",
"113 384 LINE SMOOTH",
"113 333 OFFCURVE",
"122 273 OFFCURVE",
"194 253 CURVE",
"104 197 OFFCURVE",
"55 91 OFFCURVE",
"45 0 CURVE"
);
}
);
width = 340;
}
);
unicode = 10476;
},
{
glyphname = u10477;
lastChange = "2017-02-01 14:39:09 +0000";
layers = (
{
layerId = UUID0;
paths = (
{
closed = 1;
nodes = (
"423 -10 OFFCURVE",
"449 -8 OFFCURVE",
"477 -3 CURVE",
"465 79 LINE",
"441 75 OFFCURVE",
"420 73 OFFCURVE",
"401 73 CURVE SMOOTH",
"319 73 OFFCURVE",
"244 105 OFFCURVE",
"211 164 CURVE",
"298 186 OFFCURVE",
"359 256 OFFCURVE",
"359 350 CURVE SMOOTH",
"359 468 OFFCURVE",
"272 546 OFFCURVE",
"147 546 CURVE SMOOTH",
"100 546 OFFCURVE",
"66 542 OFFCURVE",
"39 537 CURVE",
"39 453 LINE",
"69 459 OFFCURVE",
"114 463 OFFCURVE",
"146 463 CURVE SMOOTH",
"231 463 OFFCURVE",
"269 412 OFFCURVE",
"269 350 CURVE SMOOTH",
"269 298 OFFCURVE",
"237 239 OFFCURVE",
"152 239 CURVE SMOOTH",
"134 239 OFFCURVE",
"122 240 OFFCURVE",
"105 242 CURVE",
"105 226 LINE SMOOTH",
"105 110 OFFCURVE",
"202 -10 OFFCURVE",
"397 -10 CURVE SMOOTH"
);
}
);
width = 506;
}
);
unicode = 10477;
},
{
glyphname = u10478;
lastChange = "2017-02-01 14:39:09 +0000";
layers = (
{
layerId = UUID0;
paths = (
{
closed = 1;
nodes = (
"241 -10 OFFCURVE",
"316 109 OFFCURVE",
"316 206 CURVE SMOOTH",
"316 217 LINE",
"300 216 OFFCURVE",
"288 215 OFFCURVE",
"270 215 CURVE SMOOTH",
"185 215 OFFCURVE",
"153 273 OFFCURVE",
"153 325 CURVE SMOOTH",
"153 397 OFFCURVE",
"199 463 OFFCURVE",
"327 463 CURVE SMOOTH",
"459 463 OFFCURVE",
"518 397 OFFCURVE",
"518 268 CURVE SMOOTH",
"518 139 OFFCURVE",
"448 83 OFFCURVE",
"354 72 CURVE",
"354 -10 LINE",
"487 -7 OFFCURVE",
"608 87 OFFCURVE",
"608 267 CURVE SMOOTH",
"608 428 OFFCURVE",
"520 546 OFFCURVE",
"324 546 CURVE SMOOTH",
"157 546 OFFCURVE",
"63 443 OFFCURVE",
"63 325 CURVE SMOOTH",
"63 232 OFFCURVE",
"123 163 OFFCURVE",
"208 140 CURVE",
"174 84 OFFCURVE",
"111 73 OFFCURVE",
"49 73 CURVE",
"49 -10 LINE"
);
}
);
width = 665;
}
);
unicode = 10478;
},
{
glyphname = u10479;
lastChange = "2017-02-01 14:39:09 +0000";
layers = (
{
layerId = UUID0;
paths = (
{
closed = 1;
nodes = (
"528 -10 OFFCURVE",
"614 118 OFFCURVE",
"614 270 CURVE SMOOTH",
"614 444 OFFCURVE",
"501 540 OFFCURVE",
"360 546 CURVE",
"360 463 LINE",
"439 458 OFFCURVE",
"523 407 OFFCURVE",
"523 269 CURVE SMOOTH",
"523 139 OFFCURVE",
"458 73 OFFCURVE",
"343 73 CURVE SMOOTH",
"233 73 OFFCURVE",
"183 132 OFFCURVE",
"165 204 CURVE",
"250 217 OFFCURVE",
"308 274 OFFCURVE",
"308 369 CURVE SMOOTH",
"308 478 OFFCURVE",
"230 546 OFFCURVE",
"105 546 CURVE SMOOTH",
"83 546 OFFCURVE",
"66 546 OFFCURVE",
"49 544 CURVE",
"49 461 LINE",
"68 463 OFFCURVE",
"88 463 OFFCURVE",
"104 463 CURVE SMOOTH",
"189 463 OFFCURVE",
"217 422 OFFCURVE",
"217 369 CURVE SMOOTH",
"217 317 OFFCURVE",
"195 278 OFFCURVE",
"110 278 CURVE SMOOTH",
"92 278 OFFCURVE",
"80 279 OFFCURVE",
"64 281 CURVE",
"64 256 LINE SMOOTH",
"64 125 OFFCURVE",
"141 -10 OFFCURVE",
"342 -10 CURVE SMOOTH"
);
}
);
width = 670;
}
);
unicode = 10479;
},
{
glyphname = u1047A;
lastChange = "2017-02-01 14:39:09 +0000";
layers = (
{
layerId = UUID0;
paths = (
{
closed = 1;
nodes = (
"229 74 LINE",
"172 79 OFFCURVE",
"140 106 OFFCURVE",
"140 147 CURVE SMOOTH",
"140 194 OFFCURVE",
"168 222 OFFCURVE",
"211 228 CURVE",
"223 211 OFFCURVE",
"240 196 OFFCURVE",
"263 179 CURVE",
"316 237 LINE",
"307 248 OFFCURVE",
"270 275 OFFCURVE",
"270 335 CURVE SMOOTH",
"270 398 OFFCURVE",
"307 463 OFFCURVE",
"425 463 CURVE SMOOTH",
"512 463 OFFCURVE",
"586 407 OFFCURVE",
"586 277 CURVE SMOOTH",
"586 154 OFFCURVE",
"523 85 OFFCURVE",
"423 72 CURVE",
"423 -10 LINE",
"571 0 OFFCURVE",
"677 104 OFFCURVE",
"677 276 CURVE SMOOTH",
"677 438 OFFCURVE",
"581 546 OFFCURVE",
"425 546 CURVE SMOOTH",
"265 546 OFFCURVE",
"179 450 OFFCURVE",
"179 333 CURVE SMOOTH",
"179 324 OFFCURVE",
"180 315 OFFCURVE",
"180 307 CURVE",
"108 292 OFFCURVE",
"49 242 OFFCURVE",
"49 147 CURVE SMOOTH",
"49 46 OFFCURVE",
"140 -10 OFFCURVE",
"229 -10 CURVE"
);
}
);
width = 733;
}
);
unicode = 1047A;
},
{
glyphname = u1047B;
lastChange = "2017-02-01 14:39:09 +0000";
layers = (
{
layerId = UUID0;
paths = (
{
closed = 1;
nodes = (
"581 -10 OFFCURVE",
"677 98 OFFCURVE",
"677 260 CURVE SMOOTH",
"677 432 OFFCURVE",
"571 537 OFFCURVE",
"423 546 CURVE",
"423 464 LINE",
"523 451 OFFCURVE",
"586 382 OFFCURVE",
"586 259 CURVE SMOOTH",
"586 129 OFFCURVE",
"512 73 OFFCURVE",
"425 73 CURVE SMOOTH",
"307 73 OFFCURVE",
"270 138 OFFCURVE",
"270 201 CURVE SMOOTH",
"270 261 OFFCURVE",
"307 289 OFFCURVE",
"316 299 CURVE",
"263 357 LINE",
"240 340 OFFCURVE",
"223 324 OFFCURVE",
"211 309 CURVE",
"168 314 OFFCURVE",
"140 342 OFFCURVE",
"140 389 CURVE SMOOTH",
"140 430 OFFCURVE",
"172 458 OFFCURVE",
"229 462 CURVE",
"229 546 LINE",
"140 546 OFFCURVE",
"49 490 OFFCURVE",
"49 389 CURVE SMOOTH",
"49 294 OFFCURVE",
"108 244 OFFCURVE",
"180 229 CURVE",
"180 221 OFFCURVE",
"179 212 OFFCURVE",
"179 203 CURVE SMOOTH",
"179 86 OFFCURVE",
"265 -10 OFFCURVE",
"425 -10 CURVE SMOOTH"
);
}
);
width = 733;
}
);
unicode = 1047B;
},
{
glyphname = u1047C;
lastChange = "2017-02-01 14:39:09 +0000";
layers = (
{
layerId = UUID0;
paths = (
{
closed = 1;
nodes = (
"546 -10 OFFCURVE",
"647 140 OFFCURVE",
"647 288 CURVE SMOOTH",
"647 440 OFFCURVE",
"573 546 OFFCURVE",
"406 546 CURVE SMOOTH",
"87 546 OFFCURVE",
"49 117 OFFCURVE",
"39 0 CURVE",
"129 0 LINE",
"140 117 OFFCURVE",
"174 463 OFFCURVE",
"412 463 CURVE SMOOTH",
"493 463 OFFCURVE",
"557 402 OFFCURVE",
"557 288 CURVE SMOOTH",
"557 181 OFFCURVE",
"487 73 OFFCURVE",
"363 73 CURVE SMOOTH",
"347 73 OFFCURVE",
"330 76 OFFCURVE",
"313 82 CURVE",
"290 1 LINE",
"315 -6 OFFCURVE",
"340 -10 OFFCURVE",
"365 -10 CURVE SMOOTH"
);
}
);
width = 704;
}
);
unicode = 1047C;
},
{
glyphname = u1047D;
lastChange = "2017-02-01 14:39:09 +0000";
layers = (
{
layerId = UUID0;
paths = (
{
closed = 1;
nodes = (
"581 -10 OFFCURVE",
"682 140 OFFCURVE",
"682 288 CURVE SMOOTH",
"682 449 OFFCURVE",
"602 546 OFFCURVE",
"440 546 CURVE SMOOTH",
"298 546 OFFCURVE",
"214 461 OFFCURVE",
"163 356 CURVE",
"163 536 LINE",
"73 536 LINE",
"73 0 LINE",
"163 0 LINE",
"164 141 OFFCURVE",
"217 463 OFFCURVE",
"438 463 CURVE SMOOTH",
"525 463 OFFCURVE",
"591 412 OFFCURVE",
"591 283 CURVE SMOOTH",
"591 176 OFFCURVE",
"521 73 OFFCURVE",
"397 73 CURVE SMOOTH",
"381 73 OFFCURVE",
"364 76 OFFCURVE",
"348 82 CURVE",
"324 1 LINE",
"350 -6 OFFCURVE",
"375 -10 OFFCURVE",
"399 -10 CURVE SMOOTH"
);
}
);
width = 738;
}
);
unicode = 1047D;
},
{
glyphname = u1047E;
lastChange = "2017-02-01 14:39:09 +0000";
layers = (
{
layerId = UUID0;
paths = (
{
closed = 1;
nodes = (
"163 0 LINE",
"163 89 LINE",
"171 187 OFFCURVE",
"250 428 OFFCURVE",
"431 462 CURVE",
"431 546 LINE",
"296 545 OFFCURVE",
"197 418 OFFCURVE",
"163 334 CURVE",
"163 536 LINE",
"73 536 LINE",
"73 0 LINE"
);
}
);
width = 450;
}
);
unicode = 1047E;
},
{
glyphname = u1047F;
lastChange = "2017-02-01 14:39:09 +0000";
layers = (
{
layerId = UUID0;
paths = (
{
closed = 1;
nodes = (
"580 17 LINE",
"429 536 LINE",
"348 536 LINE",
"213 153 LINE",
"84 781 LINE",
"0 763 LINE",
"160 0 LINE",
"248 0 LINE",
"389 402 LINE",
"500 -10 LINE"
);
}
);
width = 599;
}
);
unicode = 1047F;
},
